<?xml version="1.0" encoding="UTF-8"?>
<svg xmlns="http://www.w3.org/2000/svg" width="240" height="456" viewBox="0 0 240.00 456.00">
<rect width="100%" height="100%" fill="#fafafa"/>
<text x="120.00" y="18.00" text-anchor="middle" font-size="12" font-family="Arial,sans-serif" fill="#222">Escenario B - Splay Tree (porcion, 8 niveles)</text>
<g>
<line x1="60.00" y1="348.00" x2="40.00" y2="392.00" stroke="#333" stroke-width="1.2"/>
<line x1="80.00" y1="304.00" x2="60.00" y2="348.00" stroke="#333" stroke-width="1.2"/>
<line x1="100.00" y1="260.00" x2="80.00" y2="304.00" stroke="#333" stroke-width="1.2"/>
<line x1="120.00" y1="216.00" x2="100.00" y2="260.00" stroke="#333" stroke-width="1.2"/>
<line x1="140.00" y1="172.00" x2="120.00" y2="216.00" stroke="#333" stroke-width="1.2"/>
<line x1="160.00" y1="128.00" x2="140.00" y2="172.00" stroke="#333" stroke-width="1.2"/>
<line x1="180.00" y1="84.00" x2="160.00" y2="128.00" stroke="#333" stroke-width="1.2"/>
<line x1="200.00" y1="40.00" x2="180.00" y2="84.00" stroke="#333" stroke-width="1.2"/>
<circle cx="40.00" cy="392.00" r="8.0" fill="#34495e" stroke="#1a252f" stroke-width="1"/>
<circle cx="60.00" cy="348.00" r="8.0" fill="#34495e" stroke="#1a252f" stroke-width="1"/>
<circle cx="80.00" cy="304.00" r="8.0" fill="#34495e" stroke="#1a252f" stroke-width="1"/>
<circle cx="100.00" cy="260.00" r="8.0" fill="#34495e" stroke="#1a252f" stroke-width="1"/>
<circle cx="120.00" cy="216.00" r="8.0" fill="#34495e" stroke="#1a252f" stroke-width="1"/>
<circle cx="140.00" cy="172.00" r="8.0" fill="#34495e" stroke="#1a252f" stroke-width="1"/>
<circle cx="160.00" cy="128.00" r="8.0" fill="#34495e" stroke="#1a252f" stroke-width="1"/>
<circle cx="180.00" cy="84.00" r="8.0" fill="#34495e" stroke="#1a252f" stroke-width="1"/>
<circle cx="200.00" cy="40.00" r="8.0" fill="#34495e" stroke="#1a252f" stroke-width="1"/>
<text x="40.00" y="396.00" text-anchor="middle" font-size="7" font-family="Consolas,monospace" fill="#fff">p992</text>
<text x="60.00" y="352.00" text-anchor="middle" font-size="7" font-family="Consolas,monospace" fill="#fff">p993</text>
<text x="80.00" y="308.00" text-anchor="middle" font-size="7" font-family="Consolas,monospace" fill="#fff">p994</text>
<text x="100.00" y="264.00" text-anchor="middle" font-size="7" font-family="Consolas,monospace" fill="#fff">p995</text>
<text x="120.00" y="220.00" text-anchor="middle" font-size="7" font-family="Consolas,monospace" fill="#fff">p996</text>
<text x="140.00" y="176.00" text-anchor="middle" font-size="7" font-family="Consolas,monospace" fill="#fff">p997</text>
<text x="160.00" y="132.00" text-anchor="middle" font-size="7" font-family="Consolas,monospace" fill="#fff">p998</text>
<text x="180.00" y="88.00" text-anchor="middle" font-size="7" font-family="Consolas,monospace" fill="#fff">p999</text>
<text x="200.00" y="44.00" text-anchor="middle" font-size="7" font-family="Consolas,monospace" fill="#fff">p1000</text>
</g>
</svg>