<?xml version="1.0" encoding="UTF-8"?>
<svg xmlns="http://www.w3.org/2000/svg" width="880" height="1864" viewBox="0 0 880.00 1864.00">
<rect width="100%" height="100%" fill="#fafafa"/>
<text x="440.00" y="18.00" text-anchor="middle" font-size="12" font-family="Arial,sans-serif" fill="#222">Escenario B - BST degenerado (porcion, 40 niveles de 1000)</text>
<g>
<line x1="40.00" y1="40.00" x2="60.00" y2="84.00" stroke="#333" stroke-width="1.2"/>
<line x1="60.00" y1="84.00" x2="80.00" y2="128.00" stroke="#333" stroke-width="1.2"/>
<line x1="80.00" y1="128.00" x2="100.00" y2="172.00" stroke="#333" stroke-width="1.2"/>
<line x1="100.00" y1="172.00" x2="120.00" y2="216.00" stroke="#333" stroke-width="1.2"/>
<line x1="120.00" y1="216.00" x2="140.00" y2="260.00" stroke="#333" stroke-width="1.2"/>
<line x1="140.00" y1="260.00" x2="160.00" y2="304.00" stroke="#333" stroke-width="1.2"/>
<line x1="160.00" y1="304.00" x2="180.00" y2="348.00" stroke="#333" stroke-width="1.2"/>
<line x1="180.00" y1="348.00" x2="200.00" y2="392.00" stroke="#333" stroke-width="1.2"/>
<line x1="200.00" y1="392.00" x2="220.00" y2="436.00" stroke="#333" stroke-width="1.2"/>
<line x1="220.00" y1="436.00" x2="240.00" y2="480.00" stroke="#333" stroke-width="1.2"/>
<line x1="240.00" y1="480.00" x2="260.00" y2="524.00" stroke="#333" stroke-width="1.2"/>
<line x1="260.00" y1="524.00" x2="280.00" y2="568.00" stroke="#333" stroke-width="1.2"/>
<line x1="280.00" y1="568.00" x2="300.00" y2="612.00" stroke="#333" stroke-width="1.2"/>
<line x1="300.00" y1="612.00" x2="320.00" y2="656.00" stroke="#333" stroke-width="1.2"/>
<line x1="320.00" y1="656.00" x2="340.00" y2="700.00" stroke="#333" stroke-width="1.2"/>
<line x1="340.00" y1="700.00" x2="360.00" y2="744.00" stroke="#333" stroke-width="1.2"/>
<line x1="360.00" y1="744.00" x2="380.00" y2="788.00" stroke="#333" stroke-width="1.2"/>
<line x1="380.00" y1="788.00" x2="400.00" y2="832.00" stroke="#333" stroke-width="1.2"/>
<line x1="400.00" y1="832.00" x2="420.00" y2="876.00" stroke="#333" stroke-width="1.2"/>
<line x1="420.00" y1="876.00" x2="440.00" y2="920.00" stroke="#333" stroke-width="1.2"/>
<line x1="440.00" y1="920.00" x2="460.00" y2="964.00" stroke="#333" stroke-width="1.2"/>
<line x1="460.00" y1="964.00" x2="480.00" y2="1008.00" stroke="#333" stroke-width="1.2"/>
<line x1="480.00" y1="1008.00" x2="500.00" y2="1052.00" stroke="#333" stroke-width="1.2"/>
<line x1="500.00" y1="1052.00" x2="520.00" y2="1096.00" stroke="#333" stroke-width="1.2"/>
<line x1="520.00" y1="1096.00" x2="540.00" y2="1140.00" stroke="#333" stroke-width="1.2"/>
<line x1="540.00" y1="1140.00" x2="560.00" y2="1184.00" stroke="#333" stroke-width="1.2"/>
<line x1="560.00" y1="1184.00" x2="580.00" y2="1228.00" stroke="#333" stroke-width="1.2"/>
<line x1="580.00" y1="1228.00" x2="600.00" y2="1272.00" stroke="#333" stroke-width="1.2"/>
<line x1="600.00" y1="1272.00" x2="620.00" y2="1316.00" stroke="#333" stroke-width="1.2"/>
<line x1="620.00" y1="1316.00" x2="640.00" y2="1360.00" stroke="#333" stroke-width="1.2"/>
<line x1="640.00" y1="1360.00" x2="660.00" y2="1404.00" stroke="#333" stroke-width="1.2"/>
<line x1="660.00" y1="1404.00" x2="680.00" y2="1448.00" stroke="#333" stroke-width="1.2"/>
<line x1="680.00" y1="1448.00" x2="700.00" y2="1492.00" stroke="#333" stroke-width="1.2"/>
<line x1="700.00" y1="1492.00" x2="720.00" y2="1536.00" stroke="#333" stroke-width="1.2"/>
<line x1="720.00" y1="1536.00" x2="740.00" y2="1580.00" stroke="#333" stroke-width="1.2"/>
<line x1="740.00" y1="1580.00" x2="760.00" y2="1624.00" stroke="#333" stroke-width="1.2"/>
<line x1="760.00" y1="1624.00" x2="780.00" y2="1668.00" stroke="#333" stroke-width="1.2"/>
<line x1="780.00" y1="1668.00" x2="800.00" y2="1712.00" stroke="#333" stroke-width="1.2"/>
<line x1="800.00" y1="1712.00" x2="820.00" y2="1756.00" stroke="#333" stroke-width="1.2"/>
<line x1="820.00" y1="1756.00" x2="840.00" y2="1800.00" stroke="#333" stroke-width="1.2"/>
<circle cx="40.00" cy="40.00" r="8.0" fill="#34495e" stroke="#1a252f" stroke-width="1"/>
<circle cx="60.00" cy="84.00" r="8.0" fill="#34495e" stroke="#1a252f" stroke-width="1"/>
<circle cx="80.00" cy="128.00" r="8.0" fill="#34495e" stroke="#1a252f" stroke-width="1"/>
<circle cx="100.00" cy="172.00" r="8.0" fill="#34495e" stroke="#1a252f" stroke-width="1"/>
<circle cx="120.00" cy="216.00" r="8.0" fill="#34495e" stroke="#1a252f" stroke-width="1"/>
<circle cx="140.00" cy="260.00" r="8.0" fill="#34495e" stroke="#1a252f" stroke-width="1"/>
<circle cx="160.00" cy="304.00" r="8.0" fill="#34495e" stroke="#1a252f" stroke-width="1"/>
<circle cx="180.00" cy="348.00" r="8.0" fill="#34495e" stroke="#1a252f" stroke-width="1"/>
<circle cx="200.00" cy="392.00" r="8.0" fill="#34495e" stroke="#1a252f" stroke-width="1"/>
<circle cx="220.00" cy="436.00" r="8.0" fill="#34495e" stroke="#1a252f" stroke-width="1"/>
<circle cx="240.00" cy="480.00" r="8.0" fill="#34495e" stroke="#1a252f" stroke-width="1"/>
<circle cx="260.00" cy="524.00" r="8.0" fill="#34495e" stroke="#1a252f" stroke-width="1"/>
<circle cx="280.00" cy="568.00" r="8.0" fill="#34495e" stroke="#1a252f" stroke-width="1"/>
<circle cx="300.00" cy="612.00" r="8.0" fill="#34495e" stroke="#1a252f" stroke-width="1"/>
<circle cx="320.00" cy="656.00" r="8.0" fill="#34495e" stroke="#1a252f" stroke-width="1"/>
<circle cx="340.00" cy="700.00" r="8.0" fill="#34495e" stroke="#1a252f" stroke-width="1"/>
<circle cx="360.00" cy="744.00" r="8.0" fill="#34495e" stroke="#1a252f" stroke-width="1"/>
<circle cx="380.00" cy="788.00" r="8.0" fill="#34495e" stroke="#1a252f" stroke-width="1"/>
<circle cx="400.00" cy="832.00" r="8.0" fill="#34495e" stroke="#1a252f" stroke-width="1"/>
<circle cx="420.00" cy="876.00" r="8.0" fill="#34495e" stroke="#1a252f" stroke-width="1"/>
<circle cx="440.00" cy="920.00" r="8.0" fill="#34495e" stroke="#1a252f" stroke-width="1"/>
<circle cx="460.00" cy="964.00" r="8.0" fill="#34495e" stroke="#1a252f" stroke-width="1"/>
<circle cx="480.00" cy="1008.00" r="8.0" fill="#34495e" stroke="#1a252f" stroke-width="1"/>
<circle cx="500.00" cy="1052.00" r="8.0" fill="#34495e" stroke="#1a252f" stroke-width="1"/>
<circle cx="520.00" cy="1096.00" r="8.0" fill="#34495e" stroke="#1a252f" stroke-width="1"/>
<circle cx="540.00" cy="1140.00" r="8.0" fill="#34495e" stroke="#1a252f" stroke-width="1"/>
<circle cx="560.00" cy="1184.00" r="8.0" fill="#34495e" stroke="#1a252f" stroke-width="1"/>
<circle cx="580.00" cy="1228.00" r="8.0" fill="#34495e" stroke="#1a252f" stroke-width="1"/>
<circle cx="600.00" cy="1272.00" r="8.0" fill="#34495e" stroke="#1a252f" stroke-width="1"/>
<circle cx="620.00" cy="1316.00" r="8.0" fill="#34495e" stroke="#1a252f" stroke-width="1"/>
<circle cx="640.00" cy="1360.00" r="8.0" fill="#34495e" stroke="#1a252f" stroke-width="1"/>
<circle cx="660.00" cy="1404.00" r="8.0" fill="#34495e" stroke="#1a252f" stroke-width="1"/>
<circle cx="680.00" cy="1448.00" r="8.0" fill="#34495e" stroke="#1a252f" stroke-width="1"/>
<circle cx="700.00" cy="1492.00" r="8.0" fill="#34495e" stroke="#1a252f" stroke-width="1"/>
<circle cx="720.00" cy="1536.00" r="8.0" fill="#34495e" stroke="#1a252f" stroke-width="1"/>
<circle cx="740.00" cy="1580.00" r="8.0" fill="#34495e" stroke="#1a252f" stroke-width="1"/>
<circle cx="760.00" cy="1624.00" r="8.0" fill="#34495e" stroke="#1a252f" stroke-width="1"/>
<circle cx="780.00" cy="1668.00" r="8.0" fill="#34495e" stroke="#1a252f" stroke-width="1"/>
<circle cx="800.00" cy="1712.00" r="8.0" fill="#34495e" stroke="#1a252f" stroke-width="1"/>
<circle cx="820.00" cy="1756.00" r="8.0" fill="#34495e" stroke="#1a252f" stroke-width="1"/>
<circle cx="840.00" cy="1800.00" r="8.0" fill="#34495e" stroke="#1a252f" stroke-width="1"/>
<text x="40.00" y="44.00" text-anchor="middle" font-size="7" font-family="Consolas,monospace" fill="#fff">p1</text>
<text x="60.00" y="88.00" text-anchor="middle" font-size="7" font-family="Consolas,monospace" fill="#fff">p2</text>
<text x="80.00" y="132.00" text-anchor="middle" font-size="7" font-family="Consolas,monospace" fill="#fff">p3</text>
<text x="100.00" y="176.00" text-anchor="middle" font-size="7" font-family="Consolas,monospace" fill="#fff">p4</text>
<text x="120.00" y="220.00" text-anchor="middle" font-size="7" font-family="Consolas,monospace" fill="#fff">p5</text>
<text x="140.00" y="264.00" text-anchor="middle" font-size="7" font-family="Consolas,monospace" fill="#fff">p6</text>
<text x="160.00" y="308.00" text-anchor="middle" font-size="7" font-family="Consolas,monospace" fill="#fff">p7</text>
<text x="180.00" y="352.00" text-anchor="middle" font-size="7" font-family="Consolas,monospace" fill="#fff">p8</text>
<text x="200.00" y="396.00" text-anchor="middle" font-size="7" font-family="Consolas,monospace" fill="#fff">p9</text>
<text x="220.00" y="440.00" text-anchor="middle" font-size="7" font-family="Consolas,monospace" fill="#fff">p10</text>
<text x="240.00" y="484.00" text-anchor="middle" font-size="7" font-family="Consolas,monospace" fill="#fff">p11</text>
<text x="260.00" y="528.00" text-anchor="middle" font-size="7" font-family="Consolas,monospace" fill="#fff">p12</text>
<text x="280.00" y="572.00" text-anchor="middle" font-size="7" font-family="Consolas,monospace" fill="#fff">p13</text>
<text x="300.00" y="616.00" text-anchor="middle" font-size="7" font-family="Consolas,monospace" fill="#fff">p14</text>
<text x="320.00" y="660.00" text-anchor="middle" font-size="7" font-family="Consolas,monospace" fill="#fff">p15</text>
<text x="340.00" y="704.00" text-anchor="middle" font-size="7" font-family="Consolas,monospace" fill="#fff">p16</text>
<text x="360.00" y="748.00" text-anchor="middle" font-size="7" font-family="Consolas,monospace" fill="#fff">p17</text>
<text x="380.00" y="792.00" text-anchor="middle" font-size="7" font-family="Consolas,monospace" fill="#fff">p18</text>
<text x="400.00" y="836.00" text-anchor="middle" font-size="7" font-family="Consolas,monospace" fill="#fff">p19</text>
<text x="420.00" y="880.00" text-anchor="middle" font-size="7" font-family="Consolas,monospace" fill="#fff">p20</text>
<text x="440.00" y="924.00" text-anchor="middle" font-size="7" font-family="Consolas,monospace" fill="#fff">p21</text>
<text x="460.00" y="968.00" text-anchor="middle" font-size="7" font-family="Consolas,monospace" fill="#fff">p22</text>
<text x="480.00" y="1012.00" text-anchor="middle" font-size="7" font-family="Consolas,monospace" fill="#fff">p23</text>
<text x="500.00" y="1056.00" text-anchor="middle" font-size="7" font-family="Consolas,monospace" fill="#fff">p24</text>
<text x="520.00" y="1100.00" text-anchor="middle" font-size="7" font-family="Consolas,monospace" fill="#fff">p25</text>
<text x="540.00" y="1144.00" text-anchor="middle" font-size="7" font-family="Consolas,monospace" fill="#fff">p26</text>
<text x="560.00" y="1188.00" text-anchor="middle" font-size="7" font-family="Consolas,monospace" fill="#fff">p27</text>
<text x="580.00" y="1232.00" text-anchor="middle" font-size="7" font-family="Consolas,monospace" fill="#fff">p28</text>
<text x="600.00" y="1276.00" text-anchor="middle" font-size="7" font-family="Consolas,monospace" fill="#fff">p29</text>
<text x="620.00" y="1320.00" text-anchor="middle" font-size="7" font-family="Consolas,monospace" fill="#fff">p30</text>
<text x="640.00" y="1364.00" text-anchor="middle" font-size="7" font-family="Consolas,monospace" fill="#fff">p31</text>
<text x="660.00" y="1408.00" text-anchor="middle" font-size="7" font-family="Consolas,monospace" fill="#fff">p32</text>
<text x="680.00" y="1452.00" text-anchor="middle" font-size="7" font-family="Consolas,monospace" fill="#fff">p33</text>
<text x="700.00" y="1496.00" text-anchor="middle" font-size="7" font-family="Consolas,monospace" fill="#fff">p34</text>
<text x="720.00" y="1540.00" text-anchor="middle" font-size="7" font-family="Consolas,monospace" fill="#fff">p35</text>
<text x="740.00" y="1584.00" text-anchor="middle" font-size="7" font-family="Consolas,monospace" fill="#fff">p36</text>
<text x="760.00" y="1628.00" text-anchor="middle" font-size="7" font-family="Consolas,monospace" fill="#fff">p37</text>
<text x="780.00" y="1672.00" text-anchor="middle" font-size="7" font-family="Consolas,monospace" fill="#fff">p38</text>
<text x="800.00" y="1716.00" text-anchor="middle" font-size="7" font-family="Consolas,monospace" fill="#fff">p39</text>
<text x="820.00" y="1760.00" text-anchor="middle" font-size="7" font-family="Consolas,monospace" fill="#fff">p40</text>
<text x="840.00" y="1804.00" text-anchor="middle" font-size="7" font-family="Consolas,monospace" fill="#fff">p41</text>
</g>
</svg>